<svg xmlns="http://www.w3.org/2000/svg" xmlns:xlink="http://www.w3.org/1999/xlink" version="1.1" x="0px" y="0px" viewBox="0 0 32 40" enable-background="new 0 0 32 32" xml:space="preserve"><g><path d="M29,17h-8c-0.5522461,0-1,0.4472656-1,1v3h-8c-0.5522461,0-1,0.4472656-1,1v4H3c-0.5522461,0-1,0.4472656-1,1v2   c0,0.5527344,0.4477539,1,1,1h26c0.5522461,0,1-0.4472656,1-1V18C30,17.4472656,29.5522461,17,29,17z"/><path d="M29.7070313,4.2929688l-2-2c-0.390625-0.390625-1.0234375-0.390625-1.4140625,0l-2,2   c-0.390625,0.390625-0.390625,1.0234375,0,1.4140625s1.0234375,0.390625,1.4140625,0L26,5.4140625V16h2V5.4140625   l0.2929688,0.2929688C28.4882813,5.9023438,28.7441406,6,29,6s0.5117188-0.0976563,0.7070313-0.2929688   C30.0976563,5.3164063,30.0976563,4.6835938,29.7070313,4.2929688z"/><path d="M15.4855347,3.1465759L10,6.0000305l6,3l6-3l-5.4855347-2.8534546   C16.1978149,2.9511414,15.8021851,2.9511414,15.4855347,3.1465759z"/><path d="M10,12.5503235c0,0.3343506,0.1671143,0.6465454,0.4453125,0.8320313L15.5,16.0000305V9.8000183L10,7.0854797V12.5503235z"/><path d="M16.5,16.0000305l5.0546875-2.6176758C21.8328857,13.1968689,22,12.8846741,22,12.5503235V7.0854797l-5.5,2.7145386   V16.0000305z"/><path d="M5.5527864,16.1087837L2,18l4,2l4-2l-3.5527864-1.8912163C6.1656861,15.9637394,5.8343139,15.9637394,5.5527864,16.1087837   z"/><path d="M2,19l3.5,1.7999992V25l-2.996139-1.71208C2.192286,23.1098785,2,22.7785339,2,22.4196777V19z"/><path d="M10,19l-3.5,1.7999992V25l2.9961386-1.71208C9.8077135,23.1098785,10,22.7785339,10,22.4196777V19z"/></g><text x="0" y="47" fill="#000000" font-size="5px" font-weight="bold" font-family="'Helvetica Neue', Helvetica, Arial-Unicode, Arial, Sans-serif">Created by M. Oki Orlando</text><text x="0" y="52" fill="#000000" font-size="5px" font-weight="bold" font-family="'Helvetica Neue', Helvetica, Arial-Unicode, Arial, Sans-serif">from the Noun Project</text></svg>